<svg width="75" height="26" viewBox="0 0 75 26" fill="none" xmlns="http://www.w3.org/2000/svg">
<path d="M9.47863 11.0769C9.92322 10.8124 10.3986 10.596 10.8979 10.4346C11.5374 10.232 12.2145 10.122 12.919 10.122C13.5893 10.122 14.2391 10.2216 14.8478 10.4037C14.9299 9.98464 14.9709 9.55185 14.9709 9.10875C14.9709 9.02288 14.9675 8.93357 14.9641 8.8477C14.3109 8.67939 13.6235 8.59009 12.9156 8.59009C12.1735 8.59009 11.4553 8.6897 10.7713 8.87175C10.2413 9.01601 9.7317 9.20836 9.2495 9.4488C7.0813 10.5308 5.45344 12.5436 4.88574 14.9652C5.33033 15.2228 5.80911 15.4323 6.31183 15.5835C6.69144 13.6737 7.86787 12.0456 9.47863 11.0769Z" fill="#0063AA"/>
<path d="M21.1676 16.5615C21.1471 16.0051 21.0719 15.4624 20.9453 14.9403C20.3605 12.4981 18.6985 10.475 16.4927 9.41016C16.4722 9.96317 16.4003 10.5059 16.2772 11.0245C17.9324 11.9829 19.1431 13.6316 19.5227 15.5792C19.6048 16.0017 19.6492 16.4345 19.6492 16.881C19.6492 16.9669 19.6458 17.0527 19.6424 17.1386C19.509 20.7521 16.5508 23.6374 12.9189 23.6374C9.29042 23.6374 6.33223 20.7521 6.19543 17.142C5.66535 17.0046 5.15579 16.8192 4.67017 16.5856C4.66675 16.6852 4.66333 16.7814 4.66333 16.881C4.66333 21.4597 8.35679 25.1693 12.9155 25.1693C17.4742 25.1693 21.1676 21.4597 21.1676 16.881C21.1745 16.7745 21.1745 16.668 21.1676 16.5615Z" fill="#0063AA"/>
<path d="M8.25215 15.8724C7.58186 15.8724 6.93208 15.7727 6.32335 15.5907C5.82062 15.4396 5.34184 15.23 4.89726 14.9724C2.88295 13.8046 1.52526 11.62 1.52526 9.11597C1.52526 5.3857 4.53817 2.35959 8.25215 2.35959C9.49699 2.35959 10.6597 2.69964 11.6583 3.29044C12.0345 2.90917 12.4483 2.56568 12.8929 2.26685C11.5694 1.35661 9.97235 0.827637 8.25215 0.827637C3.69346 0.827637 0 4.53729 0 9.11597C0 12.4066 1.91171 15.2506 4.67839 16.5902C5.16059 16.8238 5.67357 17.0127 6.20365 17.1467C6.85685 17.315 7.54424 17.4043 8.25215 17.4043C9.95867 17.4043 11.5489 16.8822 12.8621 15.9891C12.4176 15.6869 12.0072 15.3399 11.631 14.9587C10.6392 15.5392 9.48331 15.8724 8.25215 15.8724Z" fill="#EB2725"/>
<path d="M14.1233 3.29358C13.6753 3.55463 13.2614 3.8672 12.8887 4.22099C14.1164 5.39572 14.903 7.03415 14.9714 8.85463C14.9748 8.9405 14.9782 9.02981 14.9782 9.11568C14.9782 9.55877 14.9338 9.99157 14.8551 10.4106C14.5815 11.8258 13.8702 13.0829 12.8682 14.031C13.2409 14.3882 13.6547 14.7008 14.0993 14.9618C15.1561 13.8936 15.9255 12.5402 16.2846 11.0255C16.4077 10.5034 16.4796 9.96409 16.5001 9.41108C16.5035 9.31146 16.5069 9.21529 16.5069 9.11568C16.5001 6.84523 15.5938 4.79118 14.1233 3.29358Z" fill="#EB2725"/>
<path d="M17.5059 15.8919C16.2611 15.8919 15.0983 15.5519 14.0997 14.9611C13.6552 14.6966 13.2414 14.384 12.8686 14.0302C11.8802 13.0857 11.1757 11.8388 10.9056 10.4374C10.4029 10.5954 9.92749 10.8118 9.48633 11.0797C9.842 12.5704 10.6012 13.9032 11.6374 14.9577C12.0136 15.3389 12.424 15.6859 12.8686 15.9881C14.1921 16.8949 15.7892 17.4239 17.5094 17.4239C18.2515 17.4239 18.9696 17.3243 19.6536 17.1422C19.657 17.0564 19.6605 16.9705 19.6605 16.8846C19.6605 16.4381 19.616 16.0053 19.5339 15.5828C18.8876 15.782 18.2104 15.8919 17.5059 15.8919Z" fill="#FDE002"/>
<path d="M17.5068 0.847778C15.8003 0.847778 14.21 1.36988 12.8968 2.26294C12.4522 2.56521 12.0384 2.9087 11.6622 3.28653C10.1746 4.78414 9.25806 6.85193 9.25806 9.13611C9.25806 9.24259 9.26148 9.35251 9.2649 9.45899C9.7471 9.21855 10.2567 9.02276 10.7867 8.88193C10.8551 7.04771 11.652 5.40241 12.8934 4.22425C13.2661 3.87046 13.68 3.55789 14.128 3.29684C15.1231 2.71635 16.2756 2.38316 17.5102 2.38316C21.2242 2.38316 24.2371 5.40928 24.2371 9.13955C24.2371 11.6058 22.9205 13.7663 20.954 14.9445C21.0806 15.4666 21.1558 16.0093 21.1763 16.5657C23.8951 15.209 25.7624 12.3924 25.7624 9.13955C25.7555 4.55743 22.0621 0.847778 17.5068 0.847778Z" fill="#FDE002"/>
<path d="M27.8142 0.892456H36.6614V2.44158H33.693V18.5855H30.7827V2.44158H27.8142V0.892456Z" fill="white"/>
<path d="M47.2246 6.43265H44.2767V2.44134H41.3664V17.0086H44.2767V13.0757H47.2246V15.9232C47.2246 16.9193 46.6056 17.6818 45.3677 18.2177C44.8034 18.4616 44.2152 18.5852 43.5996 18.5852H41.8691C40.8979 18.5852 40.0668 18.2898 39.3829 17.699C38.7297 17.1288 38.4014 16.4762 38.4014 15.7377V3.57828C38.4014 2.60621 39.0135 1.8368 40.2378 1.27005C40.7884 1.01587 41.3596 0.892212 41.9615 0.892212H43.6611C44.947 0.892212 45.9695 1.37653 46.7288 2.34173C47.0605 2.76765 47.2281 3.20388 47.2281 3.65041V6.43265H47.2246Z" fill="white"/>
<path d="M49.3489 15.7373V3.53667C49.3489 2.57491 49.985 1.8055 51.2537 1.23187C51.8214 0.974258 52.396 0.847168 52.9774 0.847168H54.6155C55.9253 0.847168 56.9615 1.33148 57.7276 2.30012C58.0661 2.73291 58.2337 3.17601 58.2337 3.62941V15.9228C58.2337 16.9395 57.625 17.7055 56.4143 18.2242C55.8501 18.4646 55.2516 18.5848 54.6155 18.5848H52.8474C51.5513 18.5848 50.5492 18.0868 49.8311 17.0872C49.5096 16.6476 49.3489 16.1976 49.3489 15.7373ZM52.3173 2.44782V17.0082H55.2345V2.44782H52.3173Z" fill="white"/>
<path d="M74.9828 18.5852H72.0144V2.44134H69.0391V18.5406H66.1014V2.44134H63.1911V18.5406H60.2227V3.69163C60.2227 2.69895 60.8143 1.9055 61.9976 1.3044C62.5379 1.02961 63.1193 0.892212 63.752 0.892212H71.368C72.6471 0.892212 73.6799 1.35935 74.4664 2.2902C74.8153 2.70926 74.9863 3.13861 74.9863 3.57828V18.5852H74.9828Z" fill="white"/>
<path d="M30.7397 22.19H29.6864V25.1268H29.2555V22.19H28.2056V21.8362H30.7397V22.19Z" fill="white"/>
<path d="M34.3814 23.6026H32.9622V24.7704H34.6139V25.1242H32.5312V21.8336H34.59V22.1874H32.9622V23.2488H34.3814V23.6026V23.6026Z" fill="white"/>
<path d="M38.8647 24.0801C38.8236 24.427 38.6971 24.6984 38.4817 24.8873C38.2662 25.0762 37.9789 25.1724 37.6233 25.1724C37.2368 25.1724 36.9256 25.0316 36.6931 24.7534C36.4605 24.4751 36.3442 24.1007 36.3442 23.6336V23.3176C36.3442 23.0119 36.399 22.744 36.5084 22.5104C36.6178 22.2768 36.7717 22.1016 36.9701 21.9745C37.1684 21.8509 37.401 21.7891 37.6643 21.7891C38.0131 21.7891 38.2901 21.8852 38.5022 22.081C38.7108 22.2768 38.8339 22.5447 38.8681 22.8917H38.4338C38.3962 22.6272 38.3141 22.4383 38.191 22.3215C38.0644 22.2047 37.89 22.1429 37.6643 22.1429C37.3873 22.1429 37.1718 22.2459 37.0145 22.452C36.8572 22.6581 36.7786 22.95 36.7786 23.3279V23.6473C36.7786 24.0046 36.8538 24.2896 37.0009 24.4992C37.1479 24.7087 37.3565 24.8152 37.6233 24.8152C37.8627 24.8152 38.0473 24.7602 38.1773 24.6503C38.3072 24.5404 38.3893 24.3515 38.4338 24.0801H38.8647Z" fill="white"/>
<path d="M43.2812 25.1242H42.8469V23.6026H41.1951V25.1242H40.7642V21.8336H41.1951V23.2488H42.8469V21.8336H43.2812V25.1242Z" fill="white"/>
<path d="M49.6096 23.6713H48.2349V25.1242H47.804V21.8336H49.8354V22.1874H48.2383V23.314H49.6131V23.6713H49.6096Z" fill="white"/>
<path d="M54.1733 23.5864C54.1733 23.9092 54.1186 24.1909 54.0126 24.4313C53.9066 24.6718 53.7527 24.8538 53.5543 24.9809C53.356 25.108 53.1234 25.1698 52.8601 25.1698C52.6036 25.1698 52.3745 25.1046 52.1727 24.9775C51.9744 24.8504 51.8171 24.6684 51.7076 24.4313C51.5982 24.1943 51.54 23.923 51.5366 23.6104V23.3734C51.5366 23.0574 51.5913 22.7757 51.7008 22.5353C51.8102 22.2914 51.9641 22.1059 52.1659 21.9789C52.3676 21.8483 52.5968 21.7865 52.8533 21.7865C53.1166 21.7865 53.3457 21.8518 53.5475 21.9789C53.7493 22.1059 53.9032 22.2914 54.0092 22.5319C54.1186 22.7723 54.1699 23.054 54.1699 23.3768V23.5864H54.1733ZM53.7459 23.3734C53.7459 22.9818 53.6672 22.683 53.5133 22.4735C53.356 22.2639 53.1371 22.1609 52.8567 22.1609C52.5831 22.1609 52.3677 22.2639 52.2103 22.4735C52.053 22.683 51.9744 22.9715 51.9675 23.3425V23.5829C51.9675 23.9608 52.0462 24.2596 52.2035 24.476C52.3608 24.6924 52.5797 24.7989 52.8567 24.7989C53.1371 24.7989 53.3526 24.6958 53.5065 24.4932C53.6604 24.2905 53.739 23.9951 53.7424 23.6138V23.3734H53.7459Z" fill="white"/>
<path d="M57.3305 23.7915H56.561V25.1242H56.1267V21.8336H57.2108C57.5802 21.8336 57.864 21.9195 58.0624 22.0878C58.2607 22.2561 58.3599 22.5034 58.3599 22.8263C58.3599 23.0324 58.3052 23.211 58.1957 23.3621C58.0863 23.5133 57.9324 23.6266 57.7341 23.7022L58.5035 25.1002V25.1277H58.0384L57.3305 23.7915ZM56.561 23.4377H57.2245C57.4399 23.4377 57.6109 23.3827 57.7375 23.2694C57.864 23.156 57.929 23.0083 57.929 22.8194C57.929 22.6168 57.8674 22.4588 57.7477 22.3523C57.628 22.2424 57.4536 22.1874 57.2245 22.1874H56.561V23.4377Z" fill="white"/>
<path d="M63.1511 24.7704H64.7037V25.1242H62.7168V21.8336H63.1511V24.7704Z" fill="white"/>
<path d="M66.9668 25.1242H66.5359V21.8336H66.9668V25.1242Z" fill="white"/>
<path d="M70.8692 23.6713H69.4944V25.1242H69.0635V21.8336H71.0949V22.1874H69.4978V23.314H70.8726V23.6713H70.8692Z" fill="white"/>
<path d="M74.7674 23.6026H73.3481V24.7704H74.9999V25.1242H72.9172V21.8336H74.976V22.1874H73.3481V23.2488H74.7674V23.6026V23.6026Z" fill="white"/>
</svg>
