<svg width="94" height="94" viewBox="0 0 94 94" fill="none" xmlns="http://www.w3.org/2000/svg">
<g filter="url(#filter0_d_884_254)">
<rect x="26.6367" y="22.6365" width="40.7273" height="40.7273" rx="20.3636" fill="white"/>
<path fill-rule="evenodd" clip-rule="evenodd" d="M36.8203 43.0001C36.8203 42.8126 36.8969 42.6328 37.0333 42.5002C37.1697 42.3676 37.3547 42.2931 37.5475 42.2931H54.6999L50.1227 37.8449C49.9862 37.7121 49.9095 37.5321 49.9095 37.3443C49.9095 37.1566 49.9862 36.9766 50.1227 36.8438C50.2593 36.7111 50.4445 36.6365 50.6376 36.6365C50.8307 36.6365 51.0159 36.7111 51.1525 36.8438L56.9703 42.4996C57.038 42.5652 57.0918 42.6433 57.1284 42.7292C57.1651 42.815 57.1839 42.9071 57.1839 43.0001C57.1839 43.0931 57.1651 43.1852 57.1284 43.2711C57.0918 43.357 57.038 43.435 56.9703 43.5006L51.1525 49.1564C51.0159 49.2892 50.8307 49.3637 50.6376 49.3637C50.4445 49.3637 50.2593 49.2892 50.1227 49.1564C49.9862 49.0237 49.9095 48.8436 49.9095 48.6559C49.9095 48.4681 49.9862 48.2881 50.1227 48.1553L54.6999 43.7071H37.5475C37.3547 43.7071 37.1697 43.6326 37.0333 43.5C36.8969 43.3674 36.8203 43.1876 36.8203 43.0001V43.0001Z" fill="#121212"/>
<circle cx="47" cy="43" r="25.5" stroke="white"/>
</g>
<defs>
<filter id="filter0_d_884_254" x="0" y="0" width="94" height="94" filterUnits="userSpaceOnUse" color-interpolation-filters="sRGB">
<feFlood flood-opacity="0" result="BackgroundImageFix"/>
<feColorMatrix in="SourceAlpha" type="matrix" values="0 0 0 0 0 0 0 0 0 0 0 0 0 0 0 0 0 0 127 0" result="hardAlpha"/>
<feOffset dy="4"/>
<feGaussianBlur stdDeviation="10.5"/>
<feComposite in2="hardAlpha" operator="out"/>
<feColorMatrix type="matrix" values="0 0 0 0 0 0 0 0 0 0 0 0 0 0 0 0 0 0 0.25 0"/>
<feBlend mode="normal" in2="BackgroundImageFix" result="effect1_dropShadow_884_254"/>
<feBlend mode="normal" in="SourceGraphic" in2="effect1_dropShadow_884_254" result="shape"/>
</filter>
</defs>
</svg>
